<?xml version="1.0" encoding="utf-8"?>
<!-- Generator: Adobe Illustrator 16.0.0, SVG Export Plug-In . SVG Version: 6.00 Build 0)  -->
<!DOCTYPE svg PUBLIC "-//W3C//DTD SVG 1.1//EN" "http://www.w3.org/Graphics/SVG/1.1/DTD/svg11.dtd">
<svg version="1.1" id="Ebene_1" xmlns="http://www.w3.org/2000/svg" xmlns:xlink="http://www.w3.org/1999/xlink" x="0px" y="0px"
	 width="201.697px" height="25.791px" viewBox="0.256 0 201.697 25.791" enable-background="new 0.256 0 201.697 25.791"
	 xml:space="preserve">
<g>
	<g>
		<path d="M33.68,12.729v-1.709h1.53V10.3c0-0.828,0.258-1.506,0.774-2.033c0.516-0.528,1.296-0.793,2.34-0.793
			c0.228,0,0.456,0.01,0.684,0.027c0.229,0.018,0.45,0.033,0.666,0.045v1.908c-0.3-0.036-0.612-0.054-0.936-0.054
			c-0.349,0-0.598,0.081-0.747,0.243c-0.15,0.162-0.226,0.435-0.226,0.818v0.559h1.765v1.709h-1.765v7.597H35.21v-7.597H33.68
			L33.68,12.729z"/>
		<path d="M50.546,20.326V19.03h-0.054c-0.324,0.54-0.744,0.931-1.261,1.17c-0.516,0.238-1.044,0.359-1.584,0.359
			c-0.684,0-1.244-0.09-1.683-0.271c-0.438-0.18-0.783-0.437-1.035-0.765c-0.252-0.33-0.429-0.732-0.531-1.206
			c-0.102-0.476-0.152-0.999-0.152-1.575v-5.725h2.556v5.257c0,0.769,0.12,1.341,0.36,1.719s0.666,0.565,1.277,0.565
			c0.696,0,1.2-0.207,1.513-0.621c0.312-0.412,0.468-1.096,0.468-2.043v-4.877h2.556v9.307L50.546,20.326L50.546,20.326z"/>
		<path d="M62.966,12.694c-0.408,0-0.75,0.093-1.026,0.279c-0.275,0.186-0.501,0.426-0.675,0.72
			s-0.297,0.618-0.369,0.972c-0.071,0.354-0.107,0.705-0.107,1.055c0,0.336,0.036,0.678,0.107,1.024
			c0.072,0.349,0.189,0.663,0.352,0.944s0.38,0.514,0.657,0.693c0.275,0.18,0.611,0.271,1.008,0.271
			c0.611,0,1.083-0.173,1.413-0.515c0.33-0.343,0.537-0.802,0.621-1.377h2.466c-0.168,1.235-0.648,2.178-1.44,2.825
			c-0.792,0.648-1.806,0.974-3.042,0.974c-0.695,0-1.335-0.116-1.917-0.353c-0.582-0.235-1.077-0.562-1.484-0.979
			c-0.408-0.42-0.727-0.922-0.954-1.504c-0.229-0.582-0.343-1.222-0.343-1.918c0-0.72,0.105-1.389,0.315-2.006
			s0.52-1.152,0.927-1.602c0.408-0.45,0.906-0.801,1.494-1.053s1.26-0.379,2.017-0.379c0.552,0,1.083,0.072,1.593,0.217
			c0.51,0.144,0.966,0.363,1.368,0.656c0.401,0.295,0.729,0.66,0.98,1.099s0.396,0.957,0.433,1.557h-2.503
			C64.687,13.228,64.057,12.694,62.966,12.694z"/>
		<path d="M75.007,7.474v4.843h0.054c0.324-0.54,0.738-0.933,1.242-1.179s0.996-0.369,1.477-0.369
			c0.684,0,1.245,0.093,1.683,0.279c0.438,0.186,0.783,0.443,1.035,0.773s0.429,0.732,0.531,1.206
			c0.102,0.474,0.152,0.999,0.152,1.575v5.724h-2.556V15.07c0-0.769-0.12-1.341-0.36-1.72c-0.239-0.377-0.666-0.566-1.277-0.566
			c-0.696,0-1.2,0.207-1.513,0.621c-0.312,0.414-0.468,1.095-0.468,2.043v4.878h-2.556V7.474H75.007z"/>
		<path d="M88.876,18.015c0.114,0.196,0.261,0.358,0.441,0.484c0.18,0.126,0.387,0.221,0.62,0.279
			c0.234,0.059,0.478,0.09,0.729,0.09c0.18,0,0.369-0.021,0.567-0.062c0.197-0.041,0.378-0.106,0.54-0.196
			c0.161-0.091,0.297-0.21,0.404-0.36c0.108-0.148,0.162-0.339,0.162-0.566c0-0.383-0.255-0.672-0.765-0.862
			c-0.51-0.191-1.222-0.386-2.133-0.576c-0.372-0.084-0.735-0.185-1.09-0.297c-0.354-0.114-0.669-0.265-0.944-0.45
			c-0.276-0.186-0.498-0.42-0.666-0.702s-0.252-0.627-0.252-1.034c0-0.601,0.117-1.093,0.351-1.477
			c0.234-0.384,0.543-0.688,0.927-0.909c0.385-0.222,0.816-0.378,1.296-0.468c0.48-0.09,0.973-0.135,1.477-0.135
			s0.993,0.048,1.467,0.144c0.474,0.097,0.897,0.259,1.27,0.486c0.372,0.229,0.681,0.53,0.927,0.909
			c0.246,0.377,0.393,0.854,0.44,1.431h-2.43c-0.036-0.492-0.222-0.825-0.558-0.999s-0.732-0.262-1.188-0.262
			c-0.144,0-0.3,0.01-0.468,0.027c-0.168,0.019-0.321,0.057-0.459,0.117s-0.255,0.146-0.351,0.262
			c-0.097,0.113-0.145,0.267-0.145,0.459c0,0.228,0.084,0.414,0.252,0.558s0.387,0.261,0.657,0.351
			c0.27,0.09,0.579,0.172,0.927,0.243c0.348,0.072,0.702,0.149,1.062,0.233c0.372,0.084,0.734,0.188,1.089,0.307
			c0.354,0.12,0.669,0.279,0.944,0.477c0.276,0.198,0.498,0.444,0.666,0.738s0.252,0.657,0.252,1.09
			c0,0.611-0.123,1.125-0.368,1.538c-0.246,0.414-0.567,0.747-0.964,0.999c-0.396,0.252-0.849,0.43-1.358,0.531
			c-0.51,0.104-1.029,0.152-1.558,0.152c-0.539,0-1.067-0.055-1.584-0.161c-0.516-0.108-0.975-0.288-1.377-0.54
			c-0.401-0.253-0.731-0.585-0.989-0.999c-0.259-0.414-0.399-0.935-0.423-1.558h2.43C88.705,17.578,88.762,17.813,88.876,18.015z"/>
		<path d="M106.56,11.074l-3.49,9.252h-0.449l-3.798-9.252h0.414l3.582,8.894h0.035l3.312-8.894H106.56z"/>
		<path d="M110.719,13.873c0.18-0.582,0.447-1.095,0.801-1.539c0.355-0.444,0.789-0.801,1.307-1.071
			c0.518-0.27,1.117-0.404,1.801-0.404c0.672,0,1.266,0.135,1.781,0.404c0.518,0.271,0.951,0.627,1.307,1.071
			c0.354,0.444,0.621,0.958,0.801,1.539c0.182,0.583,0.271,1.19,0.271,1.827c0,0.636-0.09,1.245-0.271,1.827
			c-0.18,0.582-0.447,1.096-0.801,1.539c-0.354,0.442-0.789,0.798-1.307,1.062c-0.518,0.266-1.115,0.396-1.799,0.396
			c-0.674,0-1.268-0.133-1.783-0.396c-0.518-0.264-0.951-0.617-1.307-1.062c-0.354-0.444-0.621-0.957-0.801-1.539
			s-0.27-1.191-0.27-1.827C110.451,15.063,110.539,14.455,110.719,13.873z M111.052,17.392c0.162,0.539,0.404,1.018,0.729,1.432
			c0.322,0.414,0.723,0.744,1.195,0.988c0.475,0.246,1.021,0.369,1.646,0.369c0.611,0,1.154-0.123,1.631-0.369
			c0.473-0.244,0.871-0.574,1.195-0.988s0.566-0.893,0.729-1.432c0.162-0.541,0.244-1.104,0.244-1.691
			c0-0.576-0.082-1.134-0.244-1.674s-0.402-1.018-0.729-1.432c-0.324-0.414-0.725-0.746-1.195-0.998
			c-0.477-0.252-1.02-0.379-1.631-0.379c-0.625,0-1.174,0.127-1.646,0.379c-0.475,0.252-0.873,0.584-1.195,0.998
			c-0.324,0.414-0.566,0.892-0.729,1.432s-0.244,1.098-0.244,1.674C110.808,16.288,110.89,16.851,111.052,17.392z"/>
		<path d="M124.238,11.074v2.286h0.037c0.082-0.36,0.215-0.69,0.395-0.99s0.4-0.564,0.666-0.792
			c0.264-0.228,0.555-0.405,0.871-0.53c0.318-0.127,0.658-0.189,1.02-0.189c0.723-0.024,1.322,0.158,1.811,0.549
			c0.484,0.391,0.807,0.927,0.963,1.611h0.037c0.18-0.648,0.533-1.17,1.061-1.566c0.529-0.396,1.152-0.594,1.873-0.594
			c0.564,0,1.031,0.084,1.404,0.252c0.371,0.168,0.672,0.398,0.896,0.693c0.227,0.293,0.393,0.647,0.486,1.062
			c0.096,0.414,0.146,0.873,0.146,1.377v6.084h-0.359v-6.084c0-0.456-0.039-0.87-0.117-1.242s-0.217-0.69-0.414-0.954
			c-0.199-0.264-0.463-0.468-0.793-0.611c-0.33-0.145-0.746-0.217-1.25-0.217c-0.443,0-0.846,0.088-1.207,0.262
			c-0.359,0.174-0.666,0.41-0.918,0.711c-0.252,0.3-0.443,0.646-0.576,1.035c-0.131,0.39-0.197,0.801-0.197,1.232v5.868h-0.357
			v-5.94c0-0.432-0.033-0.84-0.102-1.224c-0.064-0.384-0.188-0.72-0.369-1.008c-0.18-0.288-0.432-0.517-0.756-0.685
			s-0.744-0.252-1.26-0.252c-0.457,0-0.869,0.105-1.242,0.315c-0.371,0.21-0.688,0.492-0.945,0.846
			c-0.256,0.354-0.455,0.765-0.594,1.233c-0.139,0.468-0.207,0.96-0.207,1.477v5.237h-0.359v-9.252H124.238z"/>
		<path d="M149.24,20.326l-1.891-7.397h-0.037l-1.869,7.397h-1.656l-2.988-9.306h1.691l2.105,7.615h0.035
			l1.871-7.615h1.676l1.943,7.615h0.035l2.088-7.615h1.584l-2.969,9.306H149.24z"/>
		<path d="M167.131,20.29c-0.266,0.155-0.631,0.234-1.1,0.234c-0.396,0-0.711-0.111-0.943-0.333
			c-0.234-0.224-0.352-0.587-0.352-1.091c-0.42,0.504-0.91,0.867-1.469,1.091c-0.559,0.222-1.16,0.333-1.809,0.333
			c-0.42,0-0.818-0.049-1.197-0.145c-0.379-0.098-0.705-0.246-0.98-0.451c-0.275-0.203-0.494-0.472-0.656-0.802
			c-0.162-0.329-0.242-0.729-0.242-1.196c0-0.526,0.09-0.959,0.271-1.295c0.18-0.336,0.418-0.608,0.711-0.818
			c0.295-0.211,0.631-0.369,1.008-0.477c0.379-0.109,0.766-0.199,1.162-0.271c0.42-0.084,0.816-0.147,1.195-0.188
			c0.379-0.043,0.711-0.103,0.998-0.181c0.289-0.078,0.518-0.192,0.686-0.342c0.168-0.15,0.252-0.369,0.252-0.657
			c0-0.336-0.062-0.605-0.189-0.811c-0.125-0.203-0.287-0.359-0.484-0.467c-0.197-0.108-0.42-0.181-0.666-0.217
			c-0.246-0.035-0.488-0.054-0.73-0.054c-0.645,0-1.188,0.123-1.619,0.368c-0.432,0.246-0.666,0.712-0.699,1.396h-1.531
			c0.021-0.575,0.145-1.062,0.359-1.458c0.217-0.396,0.506-0.717,0.863-0.963c0.359-0.246,0.771-0.423,1.232-0.531
			c0.461-0.107,0.957-0.162,1.484-0.162c0.42,0,0.836,0.03,1.25,0.09c0.414,0.061,0.789,0.184,1.125,0.369
			c0.336,0.185,0.605,0.445,0.812,0.78c0.203,0.335,0.305,0.772,0.305,1.312v4.779c0,0.357,0.021,0.62,0.062,0.789
			c0.043,0.168,0.184,0.252,0.424,0.252c0.133,0,0.287-0.023,0.469-0.072v1.188H167.131z M164.646,15.521
			c-0.189,0.144-0.441,0.248-0.756,0.313c-0.311,0.065-0.639,0.119-0.979,0.161c-0.342,0.042-0.689,0.089-1.035,0.145
			c-0.348,0.054-0.66,0.142-0.938,0.261c-0.275,0.118-0.502,0.288-0.676,0.51s-0.262,0.522-0.262,0.903
			c0,0.253,0.051,0.464,0.152,0.638c0.104,0.173,0.232,0.312,0.396,0.42c0.162,0.108,0.352,0.187,0.566,0.233
			c0.213,0.046,0.443,0.07,0.686,0.07c0.504,0,0.936-0.068,1.295-0.205c0.361-0.139,0.654-0.312,0.883-0.521
			s0.396-0.438,0.504-0.683s0.162-0.476,0.162-0.688V15.521L164.646,15.521z"/>
		<path d="M173.773,7.474v12.853h-1.529V7.474H173.773z"/>
		<path d="M186.535,20.326v-1.26H186.5c-0.252,0.516-0.648,0.889-1.189,1.114c-0.541,0.229-1.135,0.344-1.781,0.344
			c-0.721,0-1.348-0.133-1.883-0.396c-0.531-0.264-0.977-0.617-1.33-1.062s-0.621-0.962-0.803-1.55
			c-0.18-0.588-0.27-1.211-0.27-1.873c0-0.658,0.088-1.282,0.262-1.871c0.174-0.588,0.439-1.102,0.791-1.539
			c0.354-0.438,0.799-0.786,1.332-1.045c0.535-0.258,1.156-0.387,1.863-0.387c0.238,0,0.498,0.024,0.771,0.072
			c0.275,0.049,0.555,0.129,0.828,0.243c0.275,0.114,0.537,0.265,0.783,0.45s0.453,0.417,0.621,0.693h0.035V7.472h1.529v12.853
			L186.535,20.326L186.535,20.326z M181.035,17.022c0.111,0.414,0.287,0.783,0.521,1.107c0.232,0.322,0.533,0.581,0.898,0.772
			c0.367,0.19,0.795,0.288,1.287,0.288c0.518,0,0.955-0.104,1.314-0.307c0.359-0.205,0.652-0.472,0.881-0.803
			c0.229-0.329,0.395-0.704,0.496-1.125c0.102-0.42,0.152-0.846,0.152-1.277c0-0.457-0.055-0.896-0.162-1.324
			c-0.107-0.426-0.279-0.801-0.514-1.125c-0.232-0.323-0.537-0.584-0.908-0.782s-0.822-0.297-1.35-0.297
			c-0.518,0-0.955,0.102-1.314,0.306c-0.359,0.205-0.648,0.475-0.863,0.811c-0.217,0.336-0.373,0.72-0.469,1.151
			c-0.096,0.433-0.145,0.876-0.145,1.332C180.867,16.185,180.922,16.609,181.035,17.022z"/>
		<path d="M200.611,19.732c-0.695,0.526-1.572,0.792-2.629,0.792c-0.742,0-1.389-0.12-1.936-0.36
			c-0.547-0.239-1.006-0.575-1.377-1.008c-0.373-0.433-0.65-0.947-0.838-1.548c-0.188-0.602-0.291-1.256-0.314-1.963
			c0-0.707,0.107-1.355,0.324-1.943s0.521-1.098,0.908-1.529c0.391-0.433,0.854-0.769,1.387-1.009
			c0.533-0.239,1.119-0.36,1.756-0.36c0.828,0,1.516,0.172,2.062,0.514c0.545,0.342,0.982,0.777,1.312,1.305
			c0.33,0.528,0.559,1.104,0.686,1.729c0.125,0.623,0.176,1.218,0.15,1.783h-6.965c-0.014,0.406,0.035,0.795,0.145,1.159
			c0.107,0.366,0.281,0.69,0.521,0.974c0.238,0.281,0.545,0.508,0.918,0.675c0.371,0.169,0.811,0.253,1.312,0.253
			c0.646,0,1.18-0.149,1.594-0.45c0.414-0.3,0.688-0.756,0.818-1.368h1.512C201.756,18.418,201.306,19.204,200.611,19.732z
			 M200.242,13.757c-0.139-0.324-0.324-0.604-0.559-0.838c-0.232-0.234-0.512-0.42-0.828-0.558s-0.67-0.207-1.053-0.207
			c-0.396,0-0.754,0.069-1.072,0.207c-0.316,0.138-0.59,0.327-0.816,0.567c-0.23,0.239-0.408,0.519-0.541,0.836
			c-0.131,0.318-0.209,0.658-0.232,1.018h5.346C200.459,14.423,200.379,14.08,200.242,13.757z"/>
	</g>
	<g>
		<path d="M10.259,25.791c-0.356,0-0.688-0.188-0.866-0.5L0.296,9.535c-0.178-0.31-0.178-0.69,0-1
			c0.179-0.31,0.509-0.5,0.866-0.5h18.192c0.357,0,0.688,0.19,0.866,0.5c0.179,0.31,0.179,0.69,0,1l-9.097,15.756
			C10.947,25.599,10.616,25.791,10.259,25.791z M2.894,10.035l7.365,12.756l7.364-12.756H2.894z"/>
		<path d="M8.662,10.035c-0.006,0-0.014,0-0.021,0H1.162c-0.342,0-0.66-0.174-0.843-0.462
			c-0.184-0.288-0.208-0.65-0.063-0.959l3.74-8.036C4.16,0.226,4.514,0,4.904,0C5.292,0,5.646,0.226,5.81,0.578L9.474,8.45
			c0.12,0.165,0.19,0.367,0.19,0.586C9.662,9.587,9.215,10.035,8.662,10.035z M2.73,8.035h4.345L4.903,3.368L2.73,8.035z"/>
		<path d="M19.383,10.035c-0.007,0-0.013,0-0.02,0h-7.48c-0.342,0-0.66-0.174-0.843-0.462
			c-0.184-0.288-0.208-0.65-0.063-0.959l3.74-8.036C14.881,0.226,15.236,0,15.624,0s0.743,0.226,0.907,0.578l3.664,7.872
			c0.119,0.165,0.189,0.367,0.189,0.586C20.383,9.587,19.935,10.035,19.383,10.035z M13.451,8.035h4.344l-2.172-4.667L13.451,8.035z
			"/>
	</g>
</g>
</svg>
