<?xml version="1.0" encoding="utf-8"?>
<!-- Generator: Adobe Illustrator 16.0.0, SVG Export Plug-In . SVG Version: 6.00 Build 0)  -->
<!DOCTYPE svg PUBLIC "-//W3C//DTD SVG 1.1//EN" "http://www.w3.org/Graphics/SVG/1.1/DTD/svg11.dtd">
<svg version="1.1" id="Ebene_1" xmlns="http://www.w3.org/2000/svg" xmlns:xlink="http://www.w3.org/1999/xlink" x="0px" y="0px"
	 width="20.201px" height="25.792px" viewBox="0 0 20.201 25.792" enable-background="new 0 0 20.201 25.792" xml:space="preserve">
<g>
	<g>
		<path d="M10.097,25.792c-0.357,0-0.688-0.19-0.866-0.5L0.134,9.536c-0.178-0.31-0.178-0.69,0-1c0.179-0.31,0.509-0.5,0.866-0.5
			h18.192c0.357,0,0.688,0.19,0.867,0.5c0.178,0.31,0.178,0.69,0,1l-9.098,15.756C10.784,25.602,10.454,25.792,10.097,25.792z
			 M2.732,10.036l7.365,12.756l7.365-12.756H2.732z"/>
		<path d="M8.5,10.036c-0.006,0-0.013,0-0.02,0H1c-0.342,0-0.66-0.174-0.843-0.462c-0.183-0.288-0.208-0.65-0.063-0.959l3.74-8.036
			C3.998,0.226,4.352,0,4.74,0c0.388,0,0.743,0.226,0.907,0.578L9.311,8.45C9.43,8.614,9.5,8.817,9.5,9.036
			C9.5,9.588,9.053,10.036,8.5,10.036z M2.568,8.036h4.344L4.74,3.37L2.568,8.036z"/>
		<path d="M19.222,10.036c-0.008,0-0.014,0-0.021,0h-7.479c-0.343,0-0.66-0.174-0.844-0.462c-0.184-0.288-0.208-0.65-0.062-0.959
			l3.74-8.036C14.718,0.226,15.071,0,15.461,0s0.743,0.226,0.907,0.578l3.664,7.872c0.119,0.165,0.189,0.367,0.189,0.586
			C20.222,9.588,19.772,10.036,19.222,10.036z M13.289,8.036h4.344L15.461,3.37L13.289,8.036z"/>
	</g>
</g>
</svg>
