<?xml version="1.0" encoding="utf-8"?>
<!-- Generator: Adobe Illustrator 22.0.1, SVG Export Plug-In . SVG Version: 6.00 Build 0)  -->
<svg version="1.1" id="Ebene_1" xmlns="http://www.w3.org/2000/svg" xmlns:xlink="http://www.w3.org/1999/xlink" x="0px" y="0px"
	 viewBox="-199 201 100 100" style="enable-background:new -199 201 100 100;" xml:space="preserve">
<style type="text/css">
	.st0{fill:#FFFFFF;}
</style>
<path class="st0" d="M-149,262.6c4.9,0,8.8-3.6,9.3-8.3h1.9c0.5,4.4,4.3,7.7,8.7,7.7c4.9,0,8.8-3.9,8.8-8.8s-3.9-8.8-8.8-8.8
	c-4.4,0-8.1,3.3-8.7,7.5h-1.9c-0.6-4.6-4.5-8.1-9.3-8.1c-4.2,0-7.7,2.7-8.9,6.4h-5.7c6.8-6.7,5.4-17.5,5.4-17.5h33.2v-25.1l-6.7,9.4
	v-9.5l-6.8,9.2v-9.2l-5.9,8.8h-33.3v16.5v22.8c1.4,0,2.8-0.2,3.9-0.4v14.6c0,0,5.8,4.9,15.6,11.5l21.8,13.2l8.5-17.5
	c0.4-0.8,0.8-1.6,1.2-2.3c1.1-2.7,1.5-5.2,1.5-6.7v-2.7l-5.1,7.6h-13.9l-21.9-13l-2.5-6.4c0.3-0.1,0.4-0.3,0.7-0.3l0.5-0.3h9
	c0,0.1,0,0.3,0,0.3C-158.4,258.5-154.2,262.6-149,262.6z M-129.1,246.2c3.9,0,7.1,3.2,7.1,7.1s-3.2,7.1-7.1,7.1s-7.1-3.2-7.1-7.1
	C-136.2,249.3-133,246.2-129.1,246.2z M-149,245.7c4.2,0,7.6,3.4,7.6,7.6s-3.4,7.6-7.6,7.6s-7.6-3.4-7.6-7.6S-153.2,245.7-149,245.7
	z"/>
</svg>
